<?xml version="1.0" encoding="utf-8"?>
<!-- Generator: Adobe Illustrator 16.0.0, SVG Export Plug-In . SVG Version: 6.00 Build 0)  -->
<!DOCTYPE svg PUBLIC "-//W3C//DTD SVG 1.1//EN" "http://www.w3.org/Graphics/SVG/1.1/DTD/svg11.dtd">
<svg version="1.1" id="Layer_1" xmlns="http://www.w3.org/2000/svg" xmlns:xlink="http://www.w3.org/1999/xlink" x="0px" y="0px"
	 width="305px" height="305.5px" viewBox="45.029 0 305 305.5" enable-background="new 45.029 0 305 305.5" xml:space="preserve">
<circle fill="#B3C0CA" stroke="#305479" stroke-width="5" stroke-miterlimit="10" cx="197.529" cy="152.75" r="144.928"/>
<path fill-rule="evenodd" clip-rule="evenodd" fill="#305479" d="M188.992,227.22L188.992,227.22h11.154
	c7.325,0,13.244,5.578,13.244,12.199s-5.919,12.2-13.244,12.2h-5.92C195.967,244.996,191.789,233.501,188.992,227.22L188.992,227.22
	z"/>
<g>
	<path fill="#EADCD0" d="M249.994,82.823l-0.091-1.586c0,0,0.007,35.333-0.006,35.729c-0.55,20.26-15.466,37.423-36.221,44.052
		v0.009c-5.922,1.885-12.321,2.921-18.998,2.921c-6.674,0-13.087-1.091-19.009-3.064c-19.597-6.506-33.983-22.638-35.985-40.765
		c-0.305-2.673-0.323-1.96-0.711-36.104l0.045-0.824c0-27.036,4.169-64.002,55.668-64.954
		C245.817,17.291,249.994,55.788,249.994,82.823z"/>
	<path fill="#FFE1AD" d="M258.736,93.355v18.618c0,1.697-1.375,3.074-3.07,3.074h-2.582c-1.154,0-2.176-0.655-2.694-1.614
		c-0.052-0.222-0.082-0.458-0.082-0.695V94.12c0-1.695,1.376-3.073,3.07-3.073h2.583c1.155,0,2.153,0.634,2.687,1.582
		C258.708,92.866,258.736,93.109,258.736,93.355z"/>
	<path fill="#FFE1AD" d="M236.884,63.241c-0.006-0.067-0.019-0.14-0.037-0.208c-0.012-0.067-0.03-0.134-0.055-0.195
		c-0.006-0.036-0.019-0.073-0.031-0.11c-0.017-0.061-0.041-0.122-0.065-0.183c-0.037-0.091-0.074-0.177-0.123-0.263
		c-0.049-0.103-0.109-0.201-0.171-0.292c-0.08-0.116-0.164-0.227-0.262-0.33c-0.056-0.073-0.123-0.141-0.196-0.202
		c-0.085-0.079-0.171-0.159-0.269-0.226c-0.062-0.049-0.127-0.092-0.195-0.135c-0.146-0.098-0.306-0.183-0.471-0.244
		c-0.078-0.036-0.164-0.067-0.249-0.091c-0.073-0.024-0.146-0.049-0.227-0.062c-0.049-0.012-0.097-0.024-0.146-0.03
		c-0.178-0.031-0.354-0.049-0.538-0.049H208.48c-0.104,0-0.214,0.006-0.313,0.018c-0.072,0.006-0.14,0.013-0.213,0.031
		c-0.049,0.006-0.098,0.018-0.146,0.024c-0.482,0.11-0.922,0.336-1.288,0.641c-0.061,0.049-0.116,0.098-0.171,0.159
		c-0.189,0.183-0.359,0.391-0.494,0.623c-0.037,0.055-0.066,0.11-0.099,0.171c-0.036,0.067-0.065,0.134-0.098,0.202
		c-0.03,0.073-0.061,0.146-0.079,0.226c-0.023,0.073-0.049,0.152-0.066,0.231c-0.02,0.062-0.031,0.122-0.043,0.183
		c-0.006,0.012-0.006,0.019-0.006,0.031c-0.013,0.073-0.024,0.146-0.031,0.225c-0.012,0.098-0.019,0.208-0.019,0.311v12.679
		c0,1.691,1.375,3.071,3.065,3.071h25.369c1.69,0,3.071-1.379,3.071-3.071V63.698C236.921,63.546,236.908,63.387,236.884,63.241z
		 M218.069,82.921c-3.197,0-5.792,2.594-5.792,5.787c0,3.187,2.595,5.781,5.792,5.781c3.188,0,5.775-2.594,5.775-5.781
		C223.845,85.516,221.257,82.921,218.069,82.921z M183.501,63.387c-0.006-0.104-0.024-0.195-0.042-0.292V63.07
		c-0.024-0.098-0.049-0.195-0.08-0.287c-0.024-0.091-0.061-0.182-0.091-0.268c-0.006-0.006-0.006-0.006-0.006-0.012
		c-0.037-0.086-0.08-0.171-0.122-0.256c-0.006-0.006-0.013-0.019-0.019-0.025c-0.043-0.085-0.091-0.165-0.146-0.244
		c-0.159-0.244-0.354-0.458-0.58-0.647c-0.013-0.006-0.019-0.019-0.031-0.025c-0.055-0.042-0.109-0.085-0.17-0.128
		c-0.226-0.159-0.476-0.293-0.745-0.379c-0.006-0.006-0.006,0-0.006,0c-0.061-0.024-0.122-0.042-0.183-0.061
		c-0.079-0.024-0.159-0.049-0.245-0.061c-0.085-0.019-0.17-0.031-0.262-0.037c-0.098-0.012-0.207-0.018-0.311-0.018h-25.37
		c-0.103,0-0.213,0.006-0.311,0.018c-0.067,0.006-0.134,0.013-0.195,0.031c-0.042,0-0.08,0.006-0.122,0.018
		c-0.342,0.067-0.653,0.196-0.939,0.367l-0.007,0.006c-0.104,0.062-0.202,0.128-0.293,0.195c-0.019,0.012-0.03,0.025-0.042,0.031
		c-0.091,0.08-0.183,0.153-0.262,0.238c-0.08,0.073-0.147,0.152-0.208,0.237c-0.037,0.037-0.067,0.074-0.092,0.116
		c-0.067,0.085-0.128,0.177-0.183,0.27c-0.22,0.366-0.36,0.787-0.403,1.238c-0.012,0.098-0.019,0.208-0.019,0.311v12.679
		c0,1.691,1.38,3.071,3.077,3.071h25.37c1.69,0,3.058-1.379,3.058-3.071V63.698C183.52,63.595,183.514,63.485,183.501,63.387z
		 M170.609,82.921c-3.199,0-5.787,2.594-5.787,5.787c0,3.187,2.588,5.781,5.787,5.781c3.18,0,5.769-2.594,5.769-5.781
		C176.377,85.516,173.789,82.921,170.609,82.921z"/>
	<path fill="#868C91" d="M236.922,63.697v12.678c0,1.695-1.378,3.074-3.07,3.074h-25.369c-1.696,0-3.065-1.378-3.065-3.074V63.697
		c0-1.693,1.369-3.074,3.065-3.074h25.369C235.544,60.624,236.922,62.004,236.922,63.697z"/>
	<path fill="#305479" d="M218.068,82.92c3.187,0,5.775,2.593,5.775,5.787c0,3.187-2.589,5.781-5.775,5.781
		c-3.198,0-5.791-2.594-5.791-5.781C212.277,85.514,214.87,82.92,218.068,82.92z"/>
	<path fill="#868C91" d="M183.521,63.697v12.678c0,1.695-1.367,3.074-3.062,3.074h-25.37c-1.696,0-3.074-1.378-3.074-3.074V63.697
		c0-1.693,1.378-3.074,3.074-3.074h25.37C182.154,60.624,183.521,62.004,183.521,63.697z"/>
	<path fill="#305479" d="M170.607,82.92c3.184,0,5.768,2.593,5.768,5.787c0,3.187-2.584,5.781-5.768,5.781
		c-3.195,0-5.786-2.594-5.786-5.781C164.822,85.514,167.412,82.92,170.607,82.92z"/>
	<path fill="#FFE1AD" d="M138.644,93.355v18.618c0,1.697-1.378,3.074-3.074,3.074h-2.59c-1.696,0-3.064-1.377-3.064-3.074V93.355
		c0-1.694,1.368-3.065,3.064-3.065h2.59C137.265,90.291,138.644,91.661,138.644,93.355z"/>
	
		<path fill="none" stroke="#305479" stroke-width="4.8605" stroke-linecap="round" stroke-linejoin="round" stroke-miterlimit="10" d="
		M259.035,94.12v18.619c0,1.697-1.378,3.077-3.074,3.077h-2.673c-1.421-0.042-2.595-1.053-2.898-2.382
		c-0.052-0.222-0.082-0.458-0.082-0.695V94.12c0-1.695,1.376-3.073,3.07-3.073h2.583c1.155,0,2.153,0.634,2.687,1.582
		C258.89,93.068,259.035,93.578,259.035,94.12z"/>
	
		<path fill="none" stroke="#305479" stroke-width="4.8605" stroke-linecap="round" stroke-linejoin="round" stroke-miterlimit="10" d="
		M138.644,93.355v18.618c0,1.697-1.378,3.074-3.074,3.074h-2.59c-1.696,0-3.064-1.377-3.064-3.074V93.355
		c0-1.694,1.368-3.065,3.064-3.065h2.59C137.265,90.291,138.644,91.661,138.644,93.355z"/>
	
		<path fill="none" stroke="#305479" stroke-width="4.8605" stroke-linecap="round" stroke-linejoin="round" stroke-miterlimit="10" d="
		M183.521,63.697v12.678c0,1.695-1.367,3.074-3.062,3.074h-25.37c-1.696,0-3.074-1.378-3.074-3.074V63.697
		c0-1.693,1.378-3.074,3.074-3.074h25.37C182.154,60.624,183.521,62.004,183.521,63.697z"/>
	
		<path fill="none" stroke="#305479" stroke-width="4.8605" stroke-linecap="round" stroke-linejoin="round" stroke-miterlimit="10" d="
		M236.922,63.697v12.678c0,1.695-1.378,3.074-3.07,3.074h-25.369c-1.696,0-3.065-1.378-3.065-3.074V63.697
		c0-1.693,1.369-3.074,3.065-3.074h25.369C235.544,60.624,236.922,62.004,236.922,63.697z"/>
	<path fill="#C5C1BF" d="M249.919,108.912c-0.552,23.153-15.08,44.519-35.835,52.095v0.01c-5.921,2.154-12.319,3.337-18.996,3.337
		c-6.675,0-13.088-1.245-19.01-3.5c-19.597-7.433-34.977-26.672-36.978-47.386c0.674-1.737,1.631-3.535,1.631-3.535
		S188.869,200.963,249.919,108.912z"/>
	
		<path fill="none" stroke="#305479" stroke-width="4.8605" stroke-linecap="round" stroke-linejoin="round" stroke-miterlimit="10" d="
		M213.677,161.018c20.755-6.629,35.671-23.792,36.221-44.052c0.013-0.396,0.006-35.729,0.006-35.729l0.091,1.586
		c0-27.035-3.809-64.269-54.944-64.269c-52.949,0-56.031,37.601-56.031,64.636l-0.045,0.824c0.389,34.144,0.407,33.432,0.711,36.104
		c2.002,18.127,16.388,34.259,35.985,40.765c5.922,1.973,12.335,3.064,19.009,3.064c6.676,0,13.076-1.037,18.998-2.921V161.018z"/>
	<path opacity="0.2" fill="#753016" d="M205.619,106.526c0,1.788-0.405,3.477-1.137,4.974c-1.81,3.768-5.623,6.351-10.013,6.351
		c-4.533,0-8.431-2.747-10.182-6.7c-0.624-1.412-0.973-2.98-0.973-4.625h0.658c0.045,0.116,0.093,0.229,0.143,0.34
		c1.751,3.952,5.647,6.701,10.179,6.701c4.393,0,8.205-2.584,10.014-6.352c0.111-0.225,0.215-0.455,0.309-0.689H205.619z"/>
	<g id="XMLID_14_">
		<g>
			<path fill="#EADCD0" d="M214.012,160.61l-1.146,47.199c-15.892,16.231-35.672,1.189-35.672,1.189l-1.56-48.408
				C194.721,169.047,214.012,160.61,214.012,160.61z"/>
			<path opacity="0.5" fill="#F1B182" d="M175.979,161.834l0.126,5.343c0,0,16.539,10.559,38.167,0.38l-0.382-5.979
				C213.89,161.579,196.97,168.704,175.979,161.834z"/>
		</g>
		<g>
			
				<path fill="none" stroke="#305479" stroke-width="4.8605" stroke-linecap="round" stroke-linejoin="round" stroke-miterlimit="10" d="
				M175.634,160.591l1.56,48.408c0,0,19.78,15.042,35.672-1.189l1.146-47.199C214.012,160.61,194.721,169.047,175.634,160.591z"/>
		</g>
	</g>
	<g id="XMLID_12_">
		<g>
			<g id="XMLID_13_">
				<g>
					<path fill="#F5F7FA" d="M268.9,188.765l-1.239,60.927c-0.164,0.098-0.335,0.195-0.506,0.293
						c-0.599,0.354-1.196,0.696-1.808,1.045c-3.589,2.033-7.281,3.912-11.066,5.627c-0.672,0.312-1.344,0.611-2.021,0.904
						c-2.545,1.111-5.128,2.148-7.753,3.106c-1.947,0.713-3.913,1.386-5.902,2.009c-5.952,1.88-12.068,3.374-18.332,4.457
						c-0.012,0-0.029,0.005-0.042,0.005c-1.783,0.306-3.565,0.58-5.372,0.812c-0.184,0.025-0.372,0.049-0.556,0.074
						c-0.269,0.036-0.538,0.072-0.805,0.098c0,0-0.008,0.005-0.013,0c-0.056,0.018-0.116,0.023-0.178,0.023
						c-0.989,0.128-1.989,0.238-2.99,0.336c-0.093,0.006-0.184,0.019-0.275,0.025c-3.309,0.323-6.653,0.529-10.03,0.622
						c-1.25,0.03-2.508,0.049-3.772,0.049c-0.556,0-1.104-0.006-1.66-0.013c-5.115-0.055-10.164-0.384-15.126-0.977
						c-0.256-0.03-0.513-0.062-0.769-0.098c-0.061-0.007-0.122-0.013-0.183-0.018c-0.207-0.031-0.409-0.056-0.61-0.079
						c-0.367-0.051-0.733-0.098-1.093-0.146c-0.11-0.021-0.226-0.031-0.336-0.049c-7.991-1.124-15.774-2.924-23.276-5.342
						c-1.508-0.483-3.003-0.996-4.486-1.533c-8.62-3.094-16.842-7.021-24.588-11.659c-0.263-0.152-0.524-0.311-0.781-0.463
						l-1.209-59.25l28.214-2.954l3.064-0.324l1.947-0.201l0.342-0.036c0,0,8.027,9.052,21.219,14.101
						c4.077,1.563,8.656,2.739,13.643,3.143c2.204,0.185,4.493,0.215,6.855,0.056c4.926-0.323,10.165-1.453,15.658-3.693
						c6.392-2.605,13.118-6.713,20.083-12.813c0.604-0.525,1.209-1.068,1.813-1.624l0.843,0.085l0.465,0.05l0.073,0.012
						L268.9,188.765z"/>
				</g>
				
					<path fill="none" stroke="#305479" stroke-width="4.8605" stroke-linecap="round" stroke-linejoin="round" stroke-miterlimit="10" d="
					M234.96,185.206l0.843,0.085l0.465,0.05l0.073,0.012l32.56,3.413l-1.239,60.927c-78.538,44.641-144.33-0.891-144.33-0.891
					l-1.209-59.25l28.214-2.954l3.064-0.324l1.947-0.201l0.342-0.036c0,0,8.027,9.052,21.219,14.101
					c4.077,1.563,8.656,2.739,13.643,3.143c2.204,0.185,4.493,0.215,6.855,0.056c4.926-0.323,10.165-1.453,15.658-3.693
					c6.392-2.605,13.118-6.713,20.083-12.813C233.752,186.304,234.356,185.761,234.96,185.206z"/>
			</g>
		</g>
	</g>
	<g id="XMLID_11_">
		<g>
			<path fill="#F5F7FA" d="M123.331,248.801c-0.037-0.025-0.067-0.049-0.104-0.066c-0.007,0-0.019-0.008-0.025-0.013
				c-1.141-0.696-2.271-1.41-3.388-2.144h-0.006c-4.267-2.771-8.375-5.769-12.306-8.979c-0.055-0.036-0.098-0.08-0.146-0.121
				c-0.281-0.233-0.562-0.459-0.842-0.703c1.581-15.572,2.875-28.172,3.461-33.544c0.055-0.488,0.104-0.914,0.146-1.281
				c0.024-0.244,0.049-0.457,0.073-0.647c1.41-11.964,11.928-11.751,11.928-11.751L123.331,248.801z"/>
		</g>
		<g>
			
				<path fill="none" stroke="#305479" stroke-width="4.8605" stroke-linecap="round" stroke-linejoin="round" stroke-miterlimit="10" d="
				M123.331,248.801c-0.037-0.025-0.067-0.049-0.104-0.066c-0.007,0-0.019-0.008-0.025-0.013c-1.141-0.696-2.271-1.41-3.388-2.144
				h-0.006c-4.267-2.771-8.375-5.769-12.306-8.979c-0.055-0.036-0.098-0.08-0.146-0.121c-0.281-0.233-0.562-0.459-0.842-0.703
				c-0.067-0.049-0.14-0.103-0.208-0.177c1.685-15.485,3.058-28.013,3.669-33.367c0.055-0.488,0.104-0.914,0.146-1.281
				c0.024-0.244,0.049-0.457,0.073-0.647c1.41-11.964,11.928-11.751,11.928-11.751L123.331,248.801z"/>
		</g>
	</g>
	<g id="XMLID_1_">
		<g>
			<path fill="#F5F7FA" d="M260.05,282.902l4.088-31.202l3.994-2.296c-0.049,0.031-0.098,0.062-0.141,0.085l1.239-60.555
				c0,0,10.518-0.213,11.928,11.751c0.422,3.607,2.106,18.088,4.249,36.559l4.378,27.282
				C289.785,264.526,272.685,278.133,260.05,282.902"/>
		</g>
	</g>
	<g id="XMLID_10_">
		<g>
			
				<path fill="none" stroke="#305479" stroke-width="4.8605" stroke-linecap="round" stroke-linejoin="round" stroke-miterlimit="10" d="
				M260.05,282.902l4.088-31.202l3.994-2.296c-0.049,0.031-0.098,0.062-0.141,0.085l1.239-60.555c0,0,10.518-0.213,11.928,11.751
				c0.422,3.607,2.106,18.088,4.249,36.559l4.378,27.282C289.785,264.526,272.685,278.133,260.05,282.902"/>
		</g>
	</g>
	<path opacity="0.4" fill="#353130" d="M238.232,191.912l-14.132-14.134c-2.498-2.496-6.547-2.496-9.045,0l-21.072,21.074
		l-21.186-21.186c-2.497-2.497-6.547-2.497-9.045,0L149.621,191.8c-2.497,2.497-2.497,6.546,0,9.043l23.177,23.179
		c2.498,2.497,6.548,2.497,9.045,0l12.028-12.028l12.141,12.139c2.496,2.499,6.546,2.499,9.043,0l23.177-23.175
		C240.729,198.459,240.732,194.408,238.232,191.912z"/>
	<g id="XMLID_9_">
		<g>
			<g>
				<path fill="#F5F7FA" d="M196.063,205.314l-14.133,14.133c-2.498,2.496-6.546,2.496-9.044,0l-23.177-23.177
					c-2.497-2.497-2.497-6.548,0-9.045l2.323-2.319l11.809-11.813c2.499-2.498,6.549-2.495,9.045,0l23.178,23.177
					C198.56,198.768,198.56,202.814,196.063,205.314z"/>
				<path fill="#E6E9ED" d="M184.251,217.127l-2.321,2.32c-2.498,2.496-6.546,2.496-9.044,0l-23.177-23.177
					c-2.497-2.497-2.497-6.548,0-9.045l2.323-2.319L184.251,217.127z"/>
			</g>
		</g>
		<g>
			
				<path fill="none" stroke="#305479" stroke-width="4.2998" stroke-linecap="round" stroke-linejoin="round" stroke-miterlimit="10" d="
				M196.063,196.271c2.497,2.497,2.498,6.544,0,9.044l-14.133,14.133c-2.498,2.496-6.546,2.496-9.045,0l-23.176-23.177
				c-2.497-2.497-2.497-6.548,0-9.045l14.132-14.131c2.499-2.499,6.549-2.499,9.044,0L196.063,196.271z"/>
		</g>
	</g>
	<g id="XMLID_8_">
		<g>
			<g>
				<path fill="#F5F7FA" d="M238.321,187.337c2.497,2.498,2.497,6.547,0,9.045l-23.177,23.178c-2.498,2.496-6.547,2.498-9.044,0
					l-14.133-14.132c-2.499-2.499-2.499-6.549,0-9.046l23.177-23.177c2.497-2.497,6.548-2.497,9.045,0L238.321,187.337z"/>
				<path fill="#E6E9ED" d="M203.788,217.305l2.319,2.318c2.497,2.497,6.548,2.497,9.045,0l23.179-23.176
					c2.495-2.496,2.497-6.546,0-9.044l-2.323-2.321L203.788,217.305z"/>
			</g>
		</g>
		<g>
			
				<path fill="none" stroke="#305479" stroke-width="4.2998" stroke-linecap="round" stroke-linejoin="round" stroke-miterlimit="10" d="
				M215.145,219.56c-2.498,2.496-6.547,2.498-9.044,0l-14.133-14.132c-2.499-2.499-2.499-6.549,0-9.046l23.177-23.177
				c2.497-2.497,6.548-2.497,9.045,0l14.132,14.132c2.497,2.498,2.497,6.547,0,9.045L215.145,219.56z"/>
		</g>
	</g>
	<circle fill="#5CC2A7" cx="204.663" cy="244.059" r="5.058"/>
	<g id="XMLID_7_">
		<g>
			<path fill="#E6E9ED" d="M254.266,232.391c0,0.224-0.179,0.402-0.399,0.402h-33.008c-0.222,0-0.401-0.179-0.401-0.402v-9.338
				c0-0.224,0.18-0.403,0.401-0.403h33.008c0.221,0,0.399,0.18,0.399,0.403V232.391z"/>
		</g>
		<g>
			
				<path fill="none" stroke="#305479" stroke-width="4.333" stroke-linecap="round" stroke-linejoin="round" stroke-miterlimit="10" d="
				M254.266,232.391c0,0.224-0.179,0.402-0.399,0.402h-33.008c-0.222,0-0.401-0.179-0.401-0.402v-9.338
				c0-0.224,0.18-0.403,0.401-0.403h33.008c0.221,0,0.399,0.18,0.399,0.403V232.391z"/>
		</g>
	</g>
	<g id="XMLID_5_">
		<g id="XMLID_6_">
			<g>
				<path fill="#9A7E6C" d="M214.358,222.617c-1.265,0.253-3.338-0.058-5.681-0.646c-3.879-0.97-8.504-2.695-11.445-3.861h2.187
					c0.144,0,0.259-0.114,0.259-0.257v-10.762c0-0.143-0.115-0.258-0.259-0.258h-1.955c3.118-1.797,7.875-4.283,11.86-5.271
					c2.293-0.567,4.331-0.64,5.65,0.2C220.074,205.007,218.992,221.69,214.358,222.617z"/>
				<path fill="#9A7E6C" d="M199.679,207.092v10.762c0,0.143-0.115,0.259-0.259,0.259h-2.187h-6.797h-1.778
					c-0.142,0-0.256-0.116-0.256-0.259v-10.762c0-0.143,0.114-0.258,0.256-0.258h2.203h6.604h1.955
					C199.564,206.834,199.679,206.949,199.679,207.092z"/>
				<path fill="#9A7E6C" d="M190.251,206.834h-2.14c-0.137,0-0.249,0.115-0.249,0.258v10.762c0,0.143,0.111,0.259,0.249,0.259h1.727
					c-4.674,1.89-13.077,5.004-16.251,4.35c-4.501-0.927-5.551-17.61-0.601-20.854C176.562,199.265,185.542,204.017,190.251,206.834
					z"/>
				<path opacity="0.2" fill="#110F0F" d="M214.358,222.617c-1.265,0.253-3.338-0.058-5.681-0.646l-0.263-0.094
					c9.441-9.736,1.206-19.954,0.91-20.315c2.293-0.567,4.331-0.64,5.65,0.2C220.074,205.007,218.992,221.69,214.358,222.617z"/>
				<path opacity="0.2" fill="#110F0F" d="M173.853,222.317c1.265,0.253,3.337-0.06,5.68-0.646l0.262-0.094
					c-9.44-9.735-1.205-19.952-0.91-20.315c-2.292-0.569-4.329-0.642-5.651,0.2C168.136,204.705,169.217,221.391,173.853,222.317z"
					/>
			</g>
			<g>
				
					<path fill="none" stroke="#305479" stroke-width="2.6745" stroke-linecap="round" stroke-linejoin="round" stroke-miterlimit="10" d="
					M172.706,201.607c-4.527,3.244-3.567,19.928,0.55,20.854c2.903,0.654,10.588-2.46,14.863-4.35l0.378-11.278
					C184.189,204.017,175.977,199.265,172.706,201.607z"/>
				
					<path fill="none" stroke="#305479" stroke-width="2.7012" stroke-linecap="round" stroke-linejoin="round" stroke-miterlimit="10" d="
					M215.292,201.763c-3.276-2.302-11.413,2.239-15.865,5.071l-0.21,11.278c4.275,1.868,12.471,5.178,15.516,4.505
					C218.932,221.69,219.911,205.007,215.292,201.763z"/>
				
					<path fill="none" stroke="#305479" stroke-width="2.8379" stroke-linecap="round" stroke-linejoin="round" stroke-miterlimit="10" d="
					M197.465,206.834h1.955c0.144,0,0.259,0.115,0.259,0.258v10.762c0,0.143-0.115,0.259-0.259,0.259h-2.187h-6.797h-1.778
					c-0.142,0-0.256-0.116-0.256-0.259v-10.762c0-0.143,0.114-0.258,0.256-0.258h2.203H197.465z"/>
			</g>
		</g>
	</g>
	
		<path fill="none" stroke="#305479" stroke-width="4.8605" stroke-linecap="round" stroke-linejoin="round" stroke-miterlimit="10" d="
		M181.67,130.906c0-3.92,5.721-7.104,12.787-7.104c7.061,0,12.786,3.185,12.786,7.104c0,0-1.501-6.824-12.642-6.748
		C183.461,124.234,181.67,130.906,181.67,130.906z"/>
	
		<path fill="none" stroke="#305479" stroke-width="4.8605" stroke-linecap="round" stroke-linejoin="round" stroke-miterlimit="10" d="
		M204.195,103.493c0,1.587-0.359,3.092-1.01,4.423c-1.608,3.352-5.001,5.65-8.907,5.65c-4.032,0-7.498-2.446-9.055-5.959
		c-0.556-1.257-0.866-2.651-0.866-4.114c0,0,1.866,9.887,9.954,9.811C202.4,113.229,204.195,103.493,204.195,103.493z"/>
	<path fill="#305479" d="M196.241,267.136c0,1.126-0.914,2.041-2.041,2.041l0,0c-1.127,0-2.041-0.915-2.041-2.041v-46.533
		c0-1.128,0.914-2.042,2.041-2.042l0,0c1.127,0,2.041,0.914,2.041,2.042V267.136z"/>
	<path fill="#305479" d="M223.865,265.276c-0.004,0.837-0.621,1.511-1.379,1.509l0,0c-0.759-0.003-1.372-0.683-1.368-1.518
		l0.073-20.173c0.004-0.835,0.621-1.509,1.379-1.508l0,0c0.758,0.002,1.372,0.684,1.368,1.519L223.865,265.276z"/>
	<path fill="#305479" d="M254.117,257.569c0,0.538-0.615,0.976-1.373,0.976l0,0c-0.758,0-1.373-0.438-1.373-0.976v-13.004
		c0-0.541,0.615-0.977,1.373-0.977l0,0c0.758,0,1.373,0.436,1.373,0.977V257.569z"/>
	<path fill="#FFFFFF" d="M155.493,29.635l0.256-5.604c0,0-26.239,9.936-26.239,33.372l4.075-7.133L155.493,29.635z"/>
	<path fill="#FFFFFF" d="M159.295,17.87l2.207,0.339l92.325,13.719c0,0-12.344-32.229-55.136-32.06
		C155.897,0.04,160.993,21.265,159.295,17.87z"/>
	<path opacity="0.2" fill="#753016" d="M246.693,107.333c-0.434-0.051-1.736,4.198-2.151,3.935
		c-0.266-1.838-0.371-3.827-0.403-5.937c0.032-2.785,0.111-5.732,0.075-8.772c0.15-16.011-1.242-35.51-30.069-48.123
		c-21.736-9.51-55.021,10.189-56.38-13.585c-0.002-0.061-0.005-0.122-0.008-0.182c0.199-3.651,1.049-6.98,2.514-9.947
		c0.267-0.543,0.556-1.075,0.866-1.594c2.726,3.403,12.086,11.31,40.101,11.043C236.845,33.833,265.541,61.258,246.693,107.333z"/>
	<path fill="#868C91" d="M140.105,106.002l-2.38-0.167v-0.003c-0.099-0.208-6.234-13.659-8.243-30.022
		c-1.328-18.363,3.338-39.135,27.292-48.814c0.464-0.19,0.935-0.373,1.414-0.55c-0.025,0.051-0.842,1.722-0.973,4.375
		c-0.041,0.827-0.016,1.75,0.122,2.749c0.177,1.293,0.541,2.714,1.19,4.219C153.619,40.586,139.26,53.292,140.105,106.002z"/>
	<path opacity="0.2" fill="#753016" d="M140.105,106.002l-2.38-0.167v-0.003c-13.248-53.826,19.021-73.868,19.021-73.868
		s0.219,0.59,0.592,1.605c0.177,1.293,0.541,2.714,1.19,4.219C153.619,40.586,139.26,53.292,140.105,106.002z"/>
	
		<path fill="none" stroke="#305479" stroke-width="4.8605" stroke-linecap="round" stroke-linejoin="round" stroke-miterlimit="10" d="
		M160.144,37.06c0,0-0.61,0.157-1.616,0.729c-4.909,2.797-19.269,15.503-18.423,68.213l-2.38-0.167c0,0-6.218-13.533-8.243-30.025
		c-2.415-19.664,1.13-43.536,28.282-53.696c0,0-0.945,1.894-0.989,4.882c-0.016,1.133,0.097,2.42,0.441,3.825
		C157.683,32.727,158.574,34.843,160.144,37.06z"/>
	<path fill="#868C91" d="M259.686,65.2c-0.366,22.278-7.806,41.654-13.869,40.933c-0.433-0.052-0.859-0.206-1.274-0.469
		c-0.266-1.838-0.371-3.827-0.403-5.936c0.032-2.785,0.111-5.732,0.075-8.772c0.15-16.012-1.242-35.509-30.069-48.123
		c-21.736-9.509-55.019,10.189-56.38-13.584c-0.002-0.062-0.005-0.123-0.008-0.182c0.199-3.652,1.049-6.98,2.514-9.946
		c0.267-0.544,0.557-1.076,0.866-1.595c7.886-13.226,29.013-18.339,59.46-11.032C249.924,13.531,259.281,40.58,259.686,65.2z"/>
	<path opacity="0.2" fill="#753016" d="M246.408,106.599c-0.428-0.05-2.385-0.61-2.795-0.871c-0.261-1.815-0.366-3.781-0.397-5.865
		c0.031-2.753,0.109-5.666,0.075-8.67c0.148-15.825-1.229-35.094-29.72-47.56c-21.482-9.398-54.376,10.069-55.718-13.426
		c-0.004-0.06-0.007-0.121-0.009-0.179c0.196-3.61,1.037-6.899,2.482-9.83c0.266-0.538,0.552-1.064,0.859-1.577
		c2.694,3.363,11.944,11.178,39.631,10.915C236.007,29.201,265.037,61.062,246.408,106.599z"/>
	
		<path fill="none" stroke="#305479" stroke-width="4.8605" stroke-linecap="round" stroke-linejoin="round" stroke-miterlimit="10" d="
		M259.686,65.2c-0.394,23.87-8.901,44.407-15.144,40.464c-0.266-1.838-0.371-3.827-0.403-5.936c-0.04-2.746,0.047-5.695,0.075-8.772
		c0.15-16.012-1.242-35.509-30.069-48.123c-21.736-9.509-55.019,10.189-56.38-13.584c-0.002-0.062-0.005-0.123-0.008-0.182
		c-1.228-23.654,22.711-35.602,62.84-25.97C251.28,10.46,260.104,39.728,259.686,65.2z"/>
</g>
<path fill-rule="evenodd" clip-rule="evenodd" fill="#305479" d="M105.406,293.13L105.406,293.13h57.936c0.62,0,0.62,0,0.929-0.329
	c1.858-2.634-1.546-14.817-5.881-24.372l-21.688-81.343c-15.191,0.987-24.466,7.978-28.192,9.296
	C108.51,196.382,96.107,272.59,105.406,293.13z"/>
<path fill-rule="evenodd" clip-rule="evenodd" fill="#305479" d="M242.545,232.84c0,0,30.374,4.882,21.34,41.587
	c0,0-2.243,19.03-30.81,19.211H118.368c0,0-13.544-19.032-0.646-60.561L242.545,232.84z"/>
<g>
	<path fill-rule="evenodd" clip-rule="evenodd" d="M235.964,235.097c-8.187,0-15.973,0-23.749,0
		c-5.455,20.122-14.46,38.438-27.192,55.299c6.735,0,12.932-0.169,19.112,0.079c2.675,0.106,4.314-0.847,5.873-2.823
		c10.895-13.829,18.541-29.351,24.089-45.972C234.796,239.584,235.309,237.426,235.964,235.097z M129.571,235.066
		c-2.729,11.684-7.417,22.426-12.777,32.908c-0.318,0.621-0.643,1.369-0.59,2.028c0.508,6.268,1.221,12.483,3.897,18.317
		c0.841,1.833,2.108,2.521,3.787,2.005c1.163-0.358,2.341-1.238,3.115-2.204c12.239-15.255,20.542-32.523,25.984-51.233
		c0.159-0.546,0.115-1.151,0.174-1.821C145.255,235.066,137.548,235.066,129.571,235.066z M239.783,285.579
		c6.604-7.387,11.545-14.839,15.556-22.9c0.392-0.787,0.257-2.059-0.068-2.946c-2.55-6.97-5.195-13.904-7.853-20.833
		c-0.236-0.617-0.66-1.423-1.191-1.622c-2.127-0.799-4.329-1.395-5.751-1.833c-4.116,10.044-8.021,19.545-11.879,29.065
		c-0.236,0.584-0.359,1.481-0.077,1.968C232.146,272.74,235.857,278.954,239.783,285.579z M181.257,246.562
		c-5.798,15.425-13.175,30.244-23.869,43.844c7.188,0,13.793,0.096,20.392-0.08c1.308-0.036,3.053-0.763,3.804-1.765
		c3.752-5.009,7.273-10.195,10.779-15.384c0.407-0.603,0.561-1.757,0.267-2.395C188.893,262.667,185.053,254.601,181.257,246.562z
		 M163.75,273.67c0.336-0.07,0.673-0.142,1.01-0.212c6.905-12.074,12.726-24.6,16.183-38.357c-8.264,0-16.042,0-23.629,0
		c-1.474,4.587-2.919,9.008-4.292,13.451c-0.192,0.624-0.249,1.461,0.01,2.026C156.564,258.293,160.166,265.978,163.75,273.67z
		 M129.898,290.265c7.742,0,14.802,0.032,21.861-0.053c0.671-0.008,1.527-0.6,1.97-1.173c2.683-3.475,5.307-6.997,7.849-10.576
		c0.361-0.509,0.465-1.565,0.185-2.109c-3.685-7.155-7.459-14.263-11.244-21.444C145.054,267.102,138.937,279.135,129.898,290.265z
		 M195.139,267.863c4.801-7.31,12.611-27.081,12.986-32.738c-7.847,0-15.686,0-23.776,0c-0.249,1.914-1.084,3.914-0.626,5.55
		C186.356,250.085,190.342,258.96,195.139,267.863z M226.026,270.168c-4.281,6.585-8.66,13.32-13.158,20.237
		c3.024,0,5.804,0.016,8.583-0.003c4.128-0.028,8.255-0.036,12.381-0.141c2.357-0.061,4.101-1.938,3.184-3.359
		C233.382,281.276,229.669,275.701,226.026,270.168z M241.243,289.255c13.604-0.876,25.136-18.874,20.77-32.56
		C256.89,268.856,250.086,279.585,241.243,289.255z M120.255,252.691c2.013-5.951,3.933-11.629,5.887-17.404
		c-4.719-0.624-4.813-0.612-6.277,3.129C118.057,243.03,116.268,247.675,120.255,252.691z M257.573,256.649
		c0.298-0.004,0.595-0.007,0.893-0.011c0.547-2.104,2.025-4.517,1.455-6.254c-1.338-4.065-4.376-7.183-7.826-9.725
		c-0.221,0.123-0.441,0.246-0.662,0.369C253.479,246.235,255.526,251.442,257.573,256.649z"/>
	<path fill-rule="evenodd" clip-rule="evenodd" fill="#FFFFFF" d="M235.964,235.097c-0.655,2.329-1.168,4.487-1.867,6.583
		c-5.548,16.621-13.194,32.143-24.089,45.972c-1.559,1.977-3.198,2.93-5.873,2.823c-6.18-0.248-12.377-0.079-19.112-0.079
		c12.731-16.86,21.737-35.177,27.192-55.299C219.991,235.097,227.777,235.097,235.964,235.097z"/>
	<path fill-rule="evenodd" clip-rule="evenodd" fill="#FFFFFF" d="M129.571,235.066c7.977,0,15.684,0,23.591,0
		c-0.059,0.67-0.015,1.275-0.174,1.821c-5.442,18.71-13.745,35.979-25.984,51.233c-0.774,0.966-1.952,1.846-3.115,2.204
		c-1.679,0.517-2.946-0.172-3.787-2.005c-2.676-5.834-3.39-12.05-3.897-18.317c-0.053-0.659,0.272-1.407,0.59-2.028
		C122.155,257.492,126.843,246.75,129.571,235.066z"/>
	<path fill-rule="evenodd" clip-rule="evenodd" fill="#FFFFFF" d="M239.783,285.579c-3.926-6.625-7.637-12.839-11.264-19.102
		c-0.282-0.486-0.159-1.384,0.077-1.968c3.857-9.521,7.763-19.021,11.879-29.065c1.422,0.438,3.624,1.034,5.751,1.833
		c0.531,0.199,0.955,1.005,1.191,1.622c2.657,6.929,5.303,13.863,7.853,20.833c0.325,0.888,0.46,2.159,0.068,2.946
		C251.328,270.74,246.387,278.192,239.783,285.579z"/>
	<path fill-rule="evenodd" clip-rule="evenodd" fill="#FFFFFF" d="M181.257,246.562c3.795,8.039,7.636,16.105,11.373,24.221
		c0.293,0.638,0.14,1.792-0.267,2.395c-3.506,5.188-7.027,10.375-10.779,15.384c-0.751,1.002-2.496,1.729-3.804,1.765
		c-6.599,0.176-13.204,0.08-20.392,0.08C168.083,276.806,175.459,261.986,181.257,246.562z"/>
	<path fill-rule="evenodd" clip-rule="evenodd" fill="#FFFFFF" d="M163.75,273.67c-3.584-7.692-7.185-15.377-10.718-23.092
		c-0.259-0.565-0.202-1.402-0.01-2.026c1.373-4.443,2.818-8.864,4.292-13.451c7.587,0,15.366,0,23.629,0
		c-3.457,13.758-9.278,26.283-16.183,38.357C164.423,273.528,164.086,273.6,163.75,273.67z"/>
	<path fill-rule="evenodd" clip-rule="evenodd" fill="#FFFFFF" d="M129.898,290.265c9.038-11.13,15.155-23.163,20.62-35.355
		c3.785,7.182,7.56,14.289,11.244,21.444c0.28,0.544,0.177,1.601-0.185,2.109c-2.542,3.579-5.166,7.102-7.849,10.576
		c-0.443,0.573-1.298,1.165-1.97,1.173C144.7,290.297,137.64,290.265,129.898,290.265z"/>
	<path fill-rule="evenodd" clip-rule="evenodd" fill="#FFFFFF" d="M195.139,267.863c-4.797-8.903-8.782-17.778-11.416-27.188
		c-0.458-1.636,0.377-3.636,0.626-5.55c8.091,0,15.93,0,23.776,0C207.75,240.782,199.939,260.554,195.139,267.863z"/>
	<path fill-rule="evenodd" clip-rule="evenodd" fill="#FFFFFF" d="M226.026,270.168c3.643,5.533,7.355,11.108,10.989,16.734
		c0.917,1.421-0.826,3.299-3.184,3.359c-4.126,0.104-8.253,0.112-12.381,0.141c-2.779,0.019-5.559,0.003-8.583,0.003
		C217.366,283.488,221.745,276.753,226.026,270.168z"/>
	<path fill-rule="evenodd" clip-rule="evenodd" fill="#FFFFFF" d="M241.243,289.255c8.843-9.67,15.646-20.398,20.77-32.56
		C266.379,270.381,254.847,288.379,241.243,289.255z"/>
	<path fill-rule="evenodd" clip-rule="evenodd" fill="#FFFFFF" d="M120.255,252.691c-3.987-5.017-2.198-9.661-0.39-14.275
		c0.732-1.87,1.122-2.809,1.918-3.201s2-0.24,4.359,0.072C124.188,241.063,122.268,246.74,120.255,252.691z"/>
	<path fill-rule="evenodd" clip-rule="evenodd" fill="#FFFFFF" d="M257.573,256.649c-2.047-5.207-4.094-10.414-6.141-15.62
		c0.221-0.123,0.441-0.246,0.662-0.369c3.45,2.542,6.488,5.659,7.826,9.725c0.57,1.737-0.908,4.149-1.455,6.254
		C258.168,256.643,257.871,256.646,257.573,256.649z"/>
</g>
</svg>
