<?xml version="1.0" encoding="utf-8"?>
<!-- Generator: Adobe Illustrator 16.0.0, SVG Export Plug-In . SVG Version: 6.00 Build 0)  -->
<!DOCTYPE svg PUBLIC "-//W3C//DTD SVG 1.1//EN" "http://www.w3.org/Graphics/SVG/1.1/DTD/svg11.dtd">
<svg version="1.1" id="Layer_1" xmlns="http://www.w3.org/2000/svg" xmlns:xlink="http://www.w3.org/1999/xlink" x="0px" y="0px"
	 width="305px" height="305.5px" viewBox="0 0 305 305.5" enable-background="new 0 0 305 305.5" xml:space="preserve">
<g id="XMLID_294_">
	<path id="XMLID_326_" fill-rule="evenodd" clip-rule="evenodd" fill="#A15641" d="M127.401,65.516l72.379,8.133
		c1.065,0.12,1.843,1.09,1.721,2.157l-1.708,15.189l8.078,0.906l1.706-15.188c0.622-5.508-3.381-10.522-8.892-11.141l-72.376-8.132
		c-5.508-0.618-10.521,3.382-11.143,8.89l-1.704,15.189l8.074,0.909l1.709-15.19C125.365,66.169,126.333,65.396,127.401,65.516z"/>
	
		<rect id="XMLID_325_" x="68.345" y="70.511" transform="matrix(-0.9937 -0.1117 0.1117 -0.9937 157.2137 156.0091)" fill-rule="evenodd" clip-rule="evenodd" fill="#65523A" width="29.264" height="6.18"/>
	
		<rect id="XMLID_324_" x="226.672" y="88.302" transform="matrix(-0.9937 -0.1117 0.1117 -0.9937 470.891 209.1606)" fill-rule="evenodd" clip-rule="evenodd" fill="#65523A" width="29.264" height="6.178"/>
	<g id="XMLID_319_">
		
			<rect id="XMLID_323_" x="38.8" y="239.207" transform="matrix(-0.9937 -0.1118 0.1118 -0.9937 63.3341 489.4407)" fill-rule="evenodd" clip-rule="evenodd" fill="#404041" width="13.169" height="7.477"/>
		
			<rect id="XMLID_320_" x="234.04" y="261.145" transform="matrix(-0.9937 -0.1118 0.1118 -0.9937 450.1263 555.0132)" fill-rule="evenodd" clip-rule="evenodd" fill="#404041" width="13.171" height="7.48"/>
	</g>
	<path id="XMLID_318_" fill-rule="evenodd" clip-rule="evenodd" fill="#C96C38" d="M49.815,70.373l224.538,25.229
		c9.395,1.056,16.216,9.604,15.159,18.996L274.182,251.05c-1.059,9.396-9.605,16.213-18.997,15.159l-224.54-25.229
		c-9.393-1.058-16.214-9.604-15.157-18.996L30.82,85.531C31.875,76.138,40.421,69.317,49.815,70.373z"/>
	<path id="XMLID_317_" fill-rule="evenodd" clip-rule="evenodd" fill="#806A50" d="M130.994,54.867l67.647,7.602
		c1.751,0.196,3.013,1.779,2.816,3.527l-0.668,5.938c-0.194,1.746-1.781,3.01-3.527,2.815l-67.649-7.602
		c-1.748-0.198-3.013-1.783-2.813-3.528l0.667-5.938C127.661,55.935,129.246,54.67,130.994,54.867z"/>
	
		<rect id="XMLID_316_" x="65.209" y="73.559" transform="matrix(-0.9937 -0.1117 0.1117 -0.9937 128.4107 325.9855)" fill-rule="evenodd" clip-rule="evenodd" fill="#806A50" width="16.257" height="171.674"/>
	
		<rect id="XMLID_309_" x="223.536" y="91.347" transform="matrix(-0.9937 -0.1117 0.1117 -0.9937 442.0936 379.1345)" fill-rule="evenodd" clip-rule="evenodd" fill="#806A50" width="16.257" height="171.679"/>
	<g id="XMLID_298_">
		<path id="XMLID_300_" fill-rule="evenodd" clip-rule="evenodd" fill="#A15641" d="M49.815,70.373
			c-9.394-1.056-17.941,5.765-18.995,15.162l-0.565,5.042l22.405,2.517l2.488-22.121L49.815,70.373z"/>
		<path id="XMLID_299_" fill-rule="evenodd" clip-rule="evenodd" fill="#A15641" d="M274.349,95.598
			c9.396,1.055,16.213,9.605,15.159,18.997l-0.565,5.043l-22.41-2.519l2.483-22.121L274.349,95.598z"/>
	</g>
	<g id="XMLID_295_">
		<path id="XMLID_297_" fill-rule="evenodd" clip-rule="evenodd" fill="#A15641" d="M30.691,241.034
			c-9.39-1.056-16.214-9.604-15.158-18.995l0.565-5.047l22.41,2.521l-2.486,22.121L30.691,241.034z"/>
		<path id="XMLID_296_" fill-rule="evenodd" clip-rule="evenodd" fill="#A15641" d="M255.226,266.27
			c9.394,1.056,17.941-5.767,18.997-15.159l0.565-5.043l-22.412-2.519l-2.483,22.121L255.226,266.27z"/>
	</g>
</g>
</svg>
