<?xml version="1.0" encoding="utf-8"?>
<!-- Generator: Adobe Illustrator 16.0.0, SVG Export Plug-In . SVG Version: 6.00 Build 0)  -->
<!DOCTYPE svg PUBLIC "-//W3C//DTD SVG 1.1//EN" "http://www.w3.org/Graphics/SVG/1.1/DTD/svg11.dtd">
<svg version="1.1" id="Layer_1" xmlns="http://www.w3.org/2000/svg" xmlns:xlink="http://www.w3.org/1999/xlink" x="0px" y="0px"
	 width="305px" height="305.5px" viewBox="45.029 0 305 305.5" enable-background="new 45.029 0 305 305.5" xml:space="preserve">
<g>
	<circle fill="#B3C0CA" stroke="#305479" stroke-width="5" stroke-miterlimit="10" cx="199.631" cy="156.043" r="144.927"/>
	<path fill="#305479" d="M105.28,268.8h12.48c0.32,13.761,11.84,24.96,25.6,24.96h112.96c14.08,0,25.279-11.199,25.6-24.96h10.24
		c6.08,0,10.88-4.8,10.88-10.88v-67.2c0-12.48-9.28-22.72-21.44-24.32V128c0-6.4-2.24-12.48-6.08-17.28
		c-0.319-0.32-0.959-0.64-1.279-0.96c0.96-4.48,1.279-8.96,1.279-13.76v-9.92c0-4.16-1.6-8.32-4.16-11.2h2.881
		c11.84,0,21.439-9.6,21.439-21.44V51.2c0-11.84-9.6-21.44-21.439-21.44H123.52c-11.84,0-21.44,9.6-21.44,21.44v2.24
		c0,11.84,9.6,21.44,21.44,21.44h4.8c-3.84,3.84-6.08,8.96-6.08,14.72V96c0,5.12,0.64,9.92,1.6,15.04
		c-3.84,4.8-6.08,10.88-6.08,17.28v38.4c-12.8,1.6-22.72,12.48-22.72,25.6v66.88C95.04,264.32,99.52,268.8,105.28,268.8z"/>
	<path fill="#EADCD0" d="M275.52,268.16c0,10.561-8.64,19.199-19.199,19.199H143.36c-10.56,0-19.2-8.639-19.2-19.199V265.6v-1.92
		h151.68v1.92v2.561H275.52z"/>
	<path fill="#EADCD0" d="M296.96,190.4v67.2c0,2.561-1.92,4.48-4.479,4.48h-10.24v-89.6C290.561,174.08,296.96,181.44,296.96,190.4z
		"/>
	<path fill="#4EB79D" d="M269.439,85.76v9.92c0,17.92-6.719,34.24-17.92,46.72V74.56h6.721
		C264.32,74.56,269.439,79.36,269.439,85.76z"/>
	<path fill="#4EB79D" d="M245.12,68.16h-91.2V36.8c0-0.32,0-0.96-0.32-1.28h91.839c-0.319,0.32-0.319,0.96-0.319,1.28V68.16z"/>
	<path fill="#4EB79D" d="M245.12,74.56v74.24c-12.479,10.88-28.479,17.28-46.08,17.28c-17.28,0-32.96-6.08-45.12-16.32v-75.2H245.12
		z"/>
	<polygon fill="#EADCD0" points="153.92,182.72 187.2,191.68 153.92,200.641 	"/>
	<path fill="#4EB79D" d="M150.72,234.88L150.72,234.88L150.72,234.88c2.56,0,4.48,1.92,4.48,4.479c0,2.561-1.92,4.48-4.48,4.48
		c-2.56,0-4.48-1.92-4.48-4.48C145.92,236.8,148.16,234.88,150.72,234.88z"/>
	<polygon fill="#EADCD0" points="153.92,227.52 153.92,208.96 187.2,218.24 	"/>
	<polygon fill="#EADCD0" points="162.88,204.8 199.36,194.88 235.84,204.8 199.36,214.721 	"/>
	<polygon fill="#EADCD0" points="245.12,200.641 211.84,191.68 245.12,182.72 	"/>
	<polygon fill="#EADCD0" points="245.12,208.96 245.12,227.52 211.52,218.24 	"/>
	<path fill="#4EB79D" d="M248.32,234.88L248.32,234.88L248.32,234.88c2.56,0,4.479,1.92,4.479,4.479c0,2.561-1.92,4.48-4.479,4.48
		c-2.561,0-4.48-1.92-4.48-4.48C243.52,236.8,245.76,234.88,248.32,234.88z"/>
	<path fill="#EADCD0" d="M245.12,176.32l-45.76,12.16l-45.76-12.16v-18.56c12.8,9.28,28.16,14.72,45.12,14.72
		c17.28,0,33.28-5.76,46.08-15.36v19.2H245.12z"/>
	<path fill="#4EB79D" d="M289.6,50.56v2.24c0,8.32-6.72,15.04-15.039,15.04h-16.32h-6.721V36.48c0-0.32,0-0.96-0.319-1.28h23.36
		C282.561,35.52,289.6,42.24,289.6,50.56z"/>
	<path fill="#4EB79D" d="M108.48,52.8v-2.24c0-8.32,6.72-15.04,15.04-15.04h24c-0.32,0.32-0.32,0.96-0.32,1.28v31.36h-3.84h-19.84
		C115.2,68.16,108.48,61.12,108.48,52.8z"/>
	<path fill="#4EB79D" d="M147.52,74.56v69.12C136,131.2,128.64,114.24,128.64,96v-6.4c0-8.32,6.72-14.72,14.72-14.72h4.16V74.56z"/>
	<path fill="#EADCD0" d="M147.52,152.32v76.48c-4.48,1.28-7.68,5.44-7.68,10.56c0,6.08,4.8,10.881,10.88,10.881
		c6.08,0,10.88-4.801,10.88-10.881c0-2.56-0.96-4.799-2.56-6.719l40.32-11.201l40.32,11.201c-1.6,1.92-2.56,4.159-2.56,6.719
		c0,6.08,4.8,10.881,10.88,10.881s10.88-4.801,10.88-10.881c0-4.799-3.2-8.959-7.68-10.56v-77.12c9.92-9.28,17.28-21.12,21.12-34.56
		c1.92,3.2,2.88,7.04,2.88,10.88v41.6v88H124.16V169.28v-41.6c0-2.88,0.64-5.76,1.92-8.64C129.92,132.16,137.6,143.36,147.52,152.32
		z"/>
	<path fill="#EADCD0" d="M101.44,191.68c0-9.6,7.04-17.6,16.32-19.2v89.92h-12.48c-1.92,0-3.84-1.601-3.84-3.84V191.68z"/>
	<path fill="#FFFFFF" d="M179.84,124.16h12.48v12.48c0,0.96,0.64,1.6,1.6,1.6h11.2c0.96,0,1.601-0.64,1.601-1.6v-12.48H219.2
		c0.96,0,1.6-0.64,1.6-1.6v-11.2c0-0.96-0.64-1.6-1.6-1.6h-12.479V97.28c0-0.96-0.641-1.6-1.601-1.6h-11.2c-0.96,0-1.6,0.64-1.6,1.6
		v12.48h-12.48c-0.96,0-1.6,0.64-1.6,1.6v11.2C178.24,123.2,178.88,124.16,179.84,124.16z"/>
</g>
</svg>
