<?xml version="1.0" encoding="utf-8"?>
<!-- Generator: Adobe Illustrator 16.0.0, SVG Export Plug-In . SVG Version: 6.00 Build 0)  -->
<!DOCTYPE svg PUBLIC "-//W3C//DTD SVG 1.1//EN" "http://www.w3.org/Graphics/SVG/1.1/DTD/svg11.dtd">
<svg version="1.1" id="Layer_1" xmlns="http://www.w3.org/2000/svg" xmlns:xlink="http://www.w3.org/1999/xlink" x="0px" y="0px"
	 width="305px" height="305.5px" viewBox="45.029 0 305 305.5" enable-background="new 45.029 0 305 305.5" xml:space="preserve">
<circle fill="#B3C0CA" stroke="#305479" stroke-width="5" stroke-miterlimit="10" cx="197.529" cy="152.75" r="144.928"/>
<g>
	
		<path fill-rule="evenodd" clip-rule="evenodd" fill="#F0F0F0" stroke="#305479" stroke-width="4.8605" stroke-linecap="round" stroke-linejoin="round" stroke-miterlimit="10" d="
		M197.537,6.018L197.537,6.018c6.668,0,12.226,2.591,16.681,7.04c3.711,4.08,6.302,9.274,6.669,15.571h6.312v11.87h70.091v244.015
		H97.77V40.499h70.091v-11.87h6.308c0-6.297,2.592-11.491,6.669-15.571C185.296,8.609,190.854,6.018,197.537,6.018L197.537,6.018z"
		/>
	<path fill-rule="evenodd" clip-rule="evenodd" fill="#FEFEFE" d="M176.393,28.629L176.393,28.629h42.274
		c-0.372-5.187-2.596-10.381-6.298-13.723c-3.709-4.077-8.906-6.297-14.832-6.297c-5.944,0-11.132,2.22-14.833,6.297
		C178.983,18.248,176.76,23.442,176.393,28.629L176.393,28.629z"/>
	
		<polygon fill-rule="evenodd" clip-rule="evenodd" fill="none" stroke="#305479" stroke-width="4.8605" stroke-linecap="round" stroke-linejoin="round" stroke-miterlimit="10" points="
		282.825,266.71 112.234,266.71 112.234,57.552 167.86,57.552 227.198,57.552 282.825,57.552 	"/>
	<polygon fill-rule="evenodd" clip-rule="evenodd" fill="#305479" points="131.155,95.753 131.155,95.753 263.903,95.753 
		263.903,109.473 131.155,109.473 	"/>
	<polygon fill-rule="evenodd" clip-rule="evenodd" fill="#305479" points="131.155,78.33 131.155,78.33 263.903,78.33 
		263.903,92.048 131.155,92.048 	"/>
	<rect x="114.744" y="59.959" fill-rule="evenodd" clip-rule="evenodd" fill="#CAD1D8" width="11.358" height="205.237"/>
	<rect x="114.744" y="59.959" fill-rule="evenodd" clip-rule="evenodd" fill="#CAD1D8" width="165.646" height="11.358"/>
	<polygon fill-rule="evenodd" clip-rule="evenodd" fill="#305479" points="131.155,60.522 131.155,60.522 263.903,60.522 
		263.903,74.245 131.155,74.245 	"/>
	<polygon fill-rule="evenodd" clip-rule="evenodd" fill="#4EB79D" points="188.258,199.223 188.258,199.223 188.258,171.781 
		160.445,171.781 160.445,152.489 188.258,152.489 188.258,125.047 206.796,125.047 206.796,152.489 234.609,152.489 
		234.609,171.781 206.796,171.781 206.796,199.223 	"/>
</g>
<polygon fill="#D6DDE4" points="218.667,261.814 234.609,257.402 234.609,122.738 218.667,122.738 "/>
<g>
	
		<polygon fill-rule="evenodd" clip-rule="evenodd" fill="#F0F0F0" stroke="#305479" stroke-width="3" stroke-linecap="round" stroke-linejoin="round" stroke-miterlimit="10" points="
		230.381,108.755 230.381,258.934 237.549,254.109 244.735,261.814 253.183,253.664 259.628,261.814 267.63,253.369 
		274.373,261.814 282.372,253.813 289.188,261.371 296.672,254.035 304.599,261.371 310.971,254.035 317.64,259.223 319.27,258.629 
		319.27,108.755 307.038,115.525 301.204,108.755 296.538,114.525 289.871,105.691 281.204,113.525 274.825,106.191 
		267.704,113.358 258.704,105.691 252.038,113.525 245.871,105.691 237.038,113.691 233.538,109.191 	"/>
	<line fill="none" stroke="#4EB79D" stroke-width="3" stroke-miterlimit="10" x1="247.37" y1="132.858" x2="303.037" y2="132.858"/>
	<line fill="none" stroke="#4EB79D" stroke-width="3" stroke-miterlimit="10" x1="247.37" y1="150.858" x2="303.037" y2="150.858"/>
	<line fill="none" stroke="#4EB79D" stroke-width="3" stroke-miterlimit="10" x1="247.37" y1="168.858" x2="303.037" y2="168.858"/>
	<line fill="none" stroke="#4EB79D" stroke-width="3" stroke-miterlimit="10" x1="247.37" y1="186.858" x2="303.037" y2="186.858"/>
	<line fill="none" stroke="#4EB79D" stroke-width="3" stroke-miterlimit="10" x1="247.37" y1="204.858" x2="276.37" y2="204.858"/>
	<line fill="none" stroke="#4EB79D" stroke-width="3" stroke-miterlimit="10" x1="247.37" y1="222.857" x2="276.37" y2="222.857"/>
	<line fill="none" stroke="#4EB79D" stroke-width="3" stroke-miterlimit="10" x1="247.37" y1="240.859" x2="276.37" y2="240.859"/>
	<g>
		<text transform="matrix(1 0 0 1 288.1553 234.0107)" fill="#4EB79D" font-family="'SourceSansPro-Light'" font-size="41.4865">$</text>
	</g>
</g>
</svg>
