<?xml version="1.0" encoding="utf-8"?>
<!-- Generator: Adobe Illustrator 16.0.0, SVG Export Plug-In . SVG Version: 6.00 Build 0)  -->
<!DOCTYPE svg PUBLIC "-//W3C//DTD SVG 1.1//EN" "http://www.w3.org/Graphics/SVG/1.1/DTD/svg11.dtd">
<svg version="1.1" id="Layer_1" xmlns="http://www.w3.org/2000/svg" xmlns:xlink="http://www.w3.org/1999/xlink" x="0px" y="0px"
	 width="305px" height="305.5px" viewBox="0 0 305 305.5" enable-background="new 0 0 305 305.5" xml:space="preserve">
<g>
	<circle fill="#B3C0CA" stroke="#305479" stroke-width="5" stroke-miterlimit="10" cx="152.5" cy="152.75" r="144.928"/>
	<path fill="none" stroke="#294F75" stroke-width="7" stroke-miterlimit="10" d="M285.579,99.61c0.12-0.108,0.244-0.217,0.36-0.324
		c0.586-0.544,1.151-1.09,1.697-1.64c0.136-0.132,0.261-0.268,0.391-0.401c0.415-0.424,0.818-0.848,1.211-1.274
		c0.162-0.175,0.32-0.35,0.478-0.526c0.373-0.415,0.733-0.831,1.085-1.248c0.127-0.15,0.258-0.301,0.383-0.452
		c0.466-0.563,0.914-1.129,1.343-1.697c0.041-0.053,0.077-0.107,0.117-0.162c0.385-0.513,0.753-1.027,1.108-1.542
		c0.117-0.168,0.229-0.337,0.343-0.506c0.28-0.419,0.552-0.838,0.813-1.258c0.106-0.17,0.215-0.339,0.316-0.51
		c0.309-0.507,0.603-1.016,0.884-1.523c0.037-0.065,0.076-0.131,0.11-0.194c0.315-0.576,0.609-1.153,0.892-1.731
		c0.072-0.148,0.139-0.297,0.209-0.445c0.204-0.435,0.401-0.869,0.589-1.303c0.076-0.178,0.151-0.354,0.225-0.531
		c0.182-0.444,0.353-0.888,0.518-1.33c0.051-0.137,0.104-0.273,0.153-0.41c0.204-0.572,0.396-1.146,0.568-1.717
		c0.032-0.109,0.06-0.217,0.093-0.324c0.135-0.464,0.261-0.927,0.378-1.391c0.045-0.182,0.088-0.364,0.13-0.545
		c0.095-0.406,0.182-0.811,0.262-1.214c0.034-0.176,0.07-0.353,0.104-0.527c0.094-0.525,0.18-1.051,0.248-1.573
		c0.006-0.038,0.012-0.075,0.019-0.113c0.071-0.551,0.125-1.1,0.169-1.646c0.017-0.185,0.027-0.37,0.038-0.555
		c0.024-0.373,0.043-0.745,0.055-1.114c0.005-0.203,0.011-0.406,0.014-0.609c0.005-0.382,0.001-0.761-0.006-1.139
		c-0.007-0.168-0.005-0.337-0.011-0.504c-0.021-0.514-0.052-1.026-0.096-1.533c-0.017-0.195-0.042-0.39-0.062-0.583
		c-0.033-0.333-0.071-0.663-0.115-0.991c-0.031-0.229-0.064-0.457-0.103-0.685c-0.046-0.298-0.098-0.594-0.153-0.888
		c-0.042-0.229-0.082-0.455-0.129-0.682c-0.074-0.354-0.157-0.704-0.244-1.055c-0.082-0.333-0.171-0.665-0.262-0.994
		c-0.075-0.271-0.152-0.54-0.232-0.808c-0.081-0.257-0.165-0.511-0.25-0.765c-0.076-0.224-0.153-0.447-0.234-0.668
		c-0.096-0.264-0.19-0.526-0.293-0.787c-0.079-0.198-0.16-0.393-0.244-0.59c-0.237-0.571-0.489-1.135-0.759-1.689
		c-0.046-0.093-0.088-0.189-0.134-0.283c-0.146-0.292-0.301-0.578-0.455-0.864c-0.077-0.145-0.153-0.289-0.233-0.433
		c-0.162-0.288-0.328-0.574-0.497-0.857c-0.071-0.118-0.146-0.236-0.218-0.354c-0.619-1.003-1.293-1.968-2.019-2.894
		c-0.036-0.044-0.068-0.088-0.103-0.13c-0.24-0.304-0.486-0.601-0.738-0.895c-0.05-0.059-0.1-0.118-0.151-0.177
		c-1.111-1.282-2.328-2.476-3.639-3.569c-0.008-0.007-0.015-0.014-0.024-0.021c-12.389-10.319-33.129-11.646-53.399,6.663
		l-57.283,51.751L98.528,76.919c-12.321-3.981-35.931-6.813-41.794,8.551c-5.931,15.463,13.704,29.134,25.382,34.35l52.121,23.282
		l-53.443,48.281l-30.266-9.779c-24.69-7.979-31.389,9.65-7.714,20.225l19.222,8.587c-15.718,22.499-1.964,41.022,22.455,32.539
		l4.624,21.576c0.124,0.576,0.261,1.123,0.398,1.669c-0.003,0.005-0.003,0.009-0.003,0.012c0.012,0.055,0.029,0.103,0.043,0.157
		c0.125,0.497,0.261,0.975,0.398,1.445c0.06,0.207,0.116,0.418,0.179,0.618c0.143,0.459,0.29,0.899,0.44,1.333
		c0.068,0.194,0.133,0.392,0.201,0.581c0.154,0.419,0.314,0.823,0.477,1.219c0.072,0.18,0.146,0.365,0.223,0.54
		c0.164,0.384,0.334,0.749,0.508,1.109c0.078,0.167,0.157,0.335,0.239,0.499c0.175,0.345,0.354,0.675,0.534,0.996
		c0.086,0.154,0.172,0.313,0.26,0.458c0.182,0.312,0.367,0.604,0.556,0.893c0.092,0.138,0.183,0.279,0.276,0.413
		c0.188,0.273,0.379,0.531,0.572,0.783c0.098,0.127,0.193,0.253,0.293,0.373c0.194,0.238,0.388,0.463,0.584,0.677
		c0.103,0.111,0.206,0.225,0.311,0.33c0.195,0.203,0.392,0.393,0.59,0.574c0.109,0.097,0.215,0.194,0.325,0.287
		c0.196,0.166,0.392,0.321,0.591,0.468c0.113,0.086,0.227,0.166,0.342,0.243c0.194,0.134,0.391,0.255,0.588,0.37
		c0.116,0.067,0.234,0.133,0.354,0.193c0.192,0.101,0.386,0.193,0.58,0.274c0.121,0.051,0.243,0.101,0.365,0.144
		c0.19,0.068,0.378,0.131,0.567,0.183c0.126,0.033,0.251,0.062,0.378,0.089c0.184,0.038,0.366,0.071,0.55,0.095
		c0.13,0.016,0.257,0.023,0.388,0.031c0.176,0.01,0.353,0.016,0.527,0.011c0.133-0.006,0.264-0.018,0.395-0.031
		c0.17-0.017,0.338-0.035,0.506-0.068c0.133-0.025,0.266-0.061,0.396-0.096c0.162-0.042,0.32-0.088,0.479-0.144
		c0.135-0.047,0.267-0.106,0.399-0.163c0.15-0.068,0.302-0.136,0.448-0.215c0.135-0.071,0.262-0.154,0.393-0.236
		c0.143-0.089,0.284-0.18,0.422-0.282c0.131-0.097,0.257-0.203,0.383-0.313c0.131-0.11,0.262-0.22,0.392-0.345
		c0.124-0.12,0.245-0.256,0.368-0.389c0.119-0.133,0.242-0.262,0.359-0.404c0.119-0.147,0.232-0.311,0.349-0.471
		c0.108-0.15,0.22-0.297,0.323-0.46c0.113-0.177,0.22-0.366,0.328-0.553c0.096-0.171,0.196-0.338,0.287-0.517
		c0.105-0.201,0.201-0.418,0.297-0.636c0.086-0.188,0.176-0.371,0.256-0.57c0.094-0.229,0.176-0.475,0.263-0.716
		c0.074-0.209,0.149-0.408,0.218-0.624c0.081-0.257,0.15-0.531,0.225-0.803c0.061-0.223,0.125-0.439,0.18-0.671
		c0.068-0.288,0.124-0.593,0.183-0.895c0.046-0.236,0.097-0.468,0.14-0.713c0.051-0.316,0.09-0.65,0.133-0.98
		c0.033-0.255,0.07-0.499,0.098-0.762c0.037-0.347,0.058-0.717,0.082-1.079c0.02-0.265,0.045-0.52,0.057-0.791
		c0.018-0.393,0.018-0.805,0.022-1.212c0.005-0.266,0.016-0.52,0.014-0.791c-0.003-0.464-0.026-0.949-0.046-1.431
		c-0.008-0.234-0.01-0.46-0.023-0.699c-0.041-0.733-0.102-1.486-0.183-2.262l-3.265-31.44c23.573-17.08,47.146-34.162,70.719-51.246
		l12.104,56.476c2.672,12.468,11.947,34.468,28.267,31.875c16.289-2.583,18.31-26.346,16.992-39.015l-8.78-84.539
		c17.833-12.927,35.67-25.852,53.505-38.774c0.715-0.517,1.401-1.041,2.076-1.566c0.204-0.159,0.402-0.319,0.603-0.479
		c0.477-0.38,0.944-0.762,1.403-1.146c0.201-0.172,0.408-0.343,0.608-0.516C284.62,100.479,285.104,100.045,285.579,99.61z"/>
	<g>
		<path fill="#48A396" d="M225.912,143.27l-48.593,35.213l12.127,56.585c2.672,12.468,11.947,34.468,28.267,31.875
			c16.289-2.583,18.31-26.346,16.992-39.015L225.912,143.27z"/>
		<path fill="#4EB79D" d="M106.593,229.546c-7.889,5.084-15.561,8.413-22.781,10.245l5.304,24.739
			c5.276,24.631,23.379,21.821,20.773-3.252L106.593,229.546z"/>
		<path fill="#48A396" d="M106.593,229.546c-0.793,0.512-1.583,1.007-2.371,1.48c-5.734,12.119-10.65,23.881-14.711,35.185
			c5.719,22.801,22.922,19.554,20.378-4.933L106.593,229.546z"/>
		<path fill="#4EB79D" d="M42.814,201.828l23.781,10.622c1.584-3.211,3.522-6.461,5.837-9.723c2.615-3.68,5.72-7.375,9.346-11.026
			l-31.25-10.098C25.838,173.625,19.14,191.254,42.814,201.828z"/>
		<path fill="#4EB79D" d="M236.076,51.1L71.94,199.38c-34.919,31.549-9.643,62.587,28.376,35.031
			c59.704-43.267,119.409-86.532,179.113-129.797C329.762,68.142,281.708,9.88,236.076,51.1z"/>
		<path fill="#48A396" d="M266.32,37.005c-10.659,10.32-21.261,21.102-31.74,32.336c-45.83,49.136-83.072,99.983-109.519,147.138
			L279.43,104.614C318.345,76.414,298.442,35.202,266.32,37.005z"/>
		<path fill="#4EB79D" d="M56.734,85.47c-5.931,15.463,13.704,29.134,25.382,34.35l52.969,23.661l44.641-40.329L98.528,76.919
			C86.207,72.938,62.598,70.106,56.734,85.47z"/>
	</g>
	<path fill-rule="evenodd" clip-rule="evenodd" fill="#F0F0F0" stroke="#305479" stroke-width="5" stroke-miterlimit="10" d="
		M78.358,27.282c-13.76,0.672-26.254,6.194-35.836,14.87l8.844,8.847l-4.079,4.06l-8.845-8.844
		c-8.677,9.598-14.199,22.097-14.874,35.855h12.532v5.751H23.569c0.675,13.757,6.196,26.268,14.874,35.85l8.845-8.842l4.079,4.06
		l-8.86,8.848c9.599,8.696,22.093,14.201,35.853,14.885v-12.546h5.752v12.546c13.758-0.67,26.268-6.188,35.852-14.871l-8.844-8.861
		l4.064-4.06l8.859,8.842c8.682-9.582,14.201-22.093,14.871-35.85h-12.548V82.07h12.548c-0.67-13.759-6.189-26.258-14.871-35.855
		l-8.844,8.861l-4.08-4.077l8.844-8.847c-9.584-8.676-22.077-14.198-35.836-14.87v12.529h-5.768V27.282z M4.112,84.951
		c0-42.601,34.544-77.129,77.129-77.129c42.587,0,77.129,34.528,77.113,77.129c0,42.587-34.526,77.113-77.113,77.113
		C38.64,162.064,4.112,127.538,4.112,84.951L4.112,84.951z M79.49,77.581v-17.31l2.163-8.143l1.979,8.143v17.31
		c2.77,0.885,4.803,3.49,4.803,6.555c0,1.142-0.298,2.229-0.789,3.159l18.753,18.771l2.935,5.914l-5.865-2.983L84.714,90.241
		c-0.932,0.49-2.014,0.771-3.16,0.771c-1.473,0-2.852-0.474-3.963-1.262l-17.462,17.447l-4.716,2.323l2.768-4.275L75.708,87.72
		c-0.658-1.047-1.018-2.278-1.018-3.584C74.69,81.071,76.705,78.466,79.49,77.581L79.49,77.581z M81.241,148.439
		c-35.018,0-63.5-28.484-63.5-63.488c0-35.02,28.482-63.5,63.5-63.5c35.019,0,63.502,28.48,63.502,63.5
		C144.743,119.955,116.26,148.439,81.241,148.439L81.241,148.439z"/>
	<path fill-rule="evenodd" clip-rule="evenodd" fill="#F0F0F0" d="M78.358,27.282c-13.76,0.672-26.254,6.194-35.836,14.87
		l8.844,8.847l-4.079,4.06l-8.845-8.844c-8.677,9.598-14.199,22.097-14.874,35.855h12.532v5.751H23.569
		c0.675,13.757,6.196,26.268,14.874,35.85l8.845-8.842l4.079,4.06l-8.86,8.848c9.599,8.696,22.093,14.201,35.853,14.885v-12.546
		h5.752v12.546c13.758-0.67,26.268-6.188,35.852-14.871l-8.844-8.861l4.064-4.06l8.859,8.842
		c8.682-9.582,14.201-22.093,14.871-35.85h-12.548V82.07h12.548c-0.67-13.759-6.189-26.258-14.871-35.855l-8.844,8.861l-4.08-4.077
		l8.844-8.847c-9.584-8.676-22.077-14.198-35.836-14.87v12.529h-5.768V27.282z M4.112,84.951c0-42.601,34.544-77.129,77.129-77.129
		c42.587,0,77.129,34.528,77.113,77.129c0,42.587-34.526,77.113-77.113,77.113C38.64,162.064,4.112,127.538,4.112,84.951
		L4.112,84.951z M79.49,77.581v-17.31l2.163-8.143l1.979,8.143v17.31c2.77,0.885,4.803,3.49,4.803,6.555
		c0,1.142-0.298,2.229-0.789,3.159l18.753,18.771l2.935,5.914l-5.865-2.983L84.714,90.241c-0.932,0.49-2.014,0.771-3.16,0.771
		c-1.473,0-2.852-0.474-3.963-1.262l-17.462,17.447l-4.716,2.323l2.768-4.275L75.708,87.72c-0.658-1.047-1.018-2.278-1.018-3.584
		C74.69,81.071,76.705,78.466,79.49,77.581L79.49,77.581z M81.241,148.439c-35.018,0-63.5-28.484-63.5-63.488
		c0-35.02,28.482-63.5,63.5-63.5c35.019,0,63.502,28.48,63.502,63.5C144.743,119.955,116.26,148.439,81.241,148.439L81.241,148.439z
		"/>
</g>
</svg>
